<svg width="167" height="41" viewBox="0 0 167 41" fill="none" xmlns="http://www.w3.org/2000/svg">
<g clip-path="url(#clip0_3_574)">
<path fill-rule="evenodd" clip-rule="evenodd" d="M31.268 17.0065C31.1321 17.0065 31.0377 16.914 31.0197 16.7443C30.9729 16.3069 30.9342 15.8768 30.882 15.4394C30.7452 14.2715 30.586 13.1109 30.2143 11.9847C29.7132 10.4411 28.9393 9.28867 27.5626 8.9638C26.185 8.64256 24.4655 8.52278 24.4322 8.51915C24.2703 8.49465 24.1767 8.40027 24.1875 8.27142C24.2064 8.13258 24.2856 8.05544 24.4295 8.04455C24.7616 8.00735 25.09 7.97105 25.4166 7.9284C26.1482 7.82677 26.8599 7.68974 27.5608 7.45834C28.9294 7.00552 29.8292 6.10715 30.271 4.77319C30.5563 3.89841 30.7029 2.99368 30.8172 2.08169C30.891 1.47915 30.9549 0.874783 31.0179 0.276773C31.0386 0.0916526 31.1213 0 31.2689 0C31.4084 0 31.4984 0.0871153 31.5253 0.276773C31.6531 1.32306 31.564 1.04538 31.7314 2.08351C31.8151 2.6062 32.1435 4.27682 32.3154 4.77501C32.7392 6.01821 33.6525 7.02549 34.9122 7.45925C35.7067 7.7342 36.2898 7.82041 37.1176 7.92568C37.3623 7.95199 37.8311 8.01733 38.0741 8.04092C38.2594 8.05998 38.3449 8.13711 38.3449 8.27686C38.3503 8.42115 38.2603 8.50282 38.0741 8.51643C37.222 8.59991 36.9745 8.51643 34.9131 8.96471C32.858 9.41662 32.5241 11.2442 32.3118 11.9892C32.0148 13.0528 31.7557 14.3459 31.636 15.4439C31.5892 15.8042 31.5586 16.3768 31.5128 16.7443C31.5011 16.9058 31.4147 17.0065 31.268 17.0065Z" fill="#79CBC4"/>
<path d="M25.3608 15.2379C22.4401 12.3295 18.9057 10.8513 14.8584 10.8513C10.7742 10.8513 7.23708 12.3295 4.35233 15.2406C1.46487 18.1517 0 21.7171 0 25.8351C0 29.9522 1.46487 33.5167 4.35233 36.4287C7.23708 39.3398 10.7742 40.8181 14.8584 40.8181C16.6184 40.8181 18.2947 40.5268 19.8478 39.9587C21.0922 39.5023 22.279 38.8779 23.3804 38.0966C23.474 38.7763 23.7745 39.3752 24.2775 39.8798C24.8938 40.5004 25.6551 40.8181 26.5441 40.8181C27.4151 40.8181 28.1691 40.5004 28.7846 39.8798C29.4036 39.2563 29.7132 38.4986 29.7132 37.6193V25.8351C29.7123 21.7171 28.2492 18.1517 25.3608 15.2379ZM14.8584 34.3969C13.6688 34.3969 12.5459 34.1683 11.5219 33.7163C10.4944 33.2635 9.58916 32.6419 8.83513 31.8724C8.08019 31.1056 7.47193 30.1882 7.03193 29.1482C6.59193 28.1137 6.36788 27.003 6.36788 25.8351C6.36788 24.67 6.59193 23.552 7.03193 22.5202C7.47283 21.483 8.08109 20.5656 8.83513 19.7979C9.58916 19.0283 10.4944 18.4076 11.5219 17.9548C12.5459 17.5011 13.6706 17.2724 14.8584 17.2724C16.0281 17.2724 17.1412 17.5011 18.166 17.9548C19.1954 18.4086 20.1033 19.0329 20.8663 19.8087C21.633 20.5864 22.243 21.5039 22.6848 22.5365C23.1266 23.5583 23.3471 24.67 23.3471 25.8351C23.3471 26.9985 23.1257 28.1092 22.6848 29.1328C22.243 30.1655 21.633 31.0811 20.8663 31.8615C20.1024 32.6365 19.1945 33.2635 18.166 33.7163C17.1412 34.1683 16.0317 34.3969 14.8584 34.3969Z" fill="#79CBC4"/>
<path d="M37.2463 13.6408C37.2463 13.2669 37.3183 12.9094 37.4595 12.5709C37.5999 12.2315 37.7961 11.9339 38.0426 11.6753C38.2909 11.4175 38.5816 11.2161 38.9181 11.0727C39.2546 10.9312 39.6163 10.8604 40.0051 10.8604C40.3938 10.8604 40.7564 10.9312 41.0929 11.0727C41.4276 11.2161 41.7201 11.4166 41.9666 11.6753C42.215 11.9339 42.4084 12.2315 42.5506 12.5709C42.6901 12.9094 42.7638 13.2669 42.7638 13.6408V23.1101L56.2914 11.5546C56.8043 11.09 57.4153 10.8604 58.1216 10.8604C58.5103 10.8604 58.8729 10.9312 59.2095 11.0727C59.5442 11.2161 59.8348 11.4166 60.085 11.6753C60.3315 11.9339 60.5313 12.2315 60.6815 12.5709C60.8309 12.9094 60.9056 13.2669 60.9056 13.6408C60.9056 14.4076 60.6329 15.0673 60.085 15.62L48.2274 25.7571L60.1093 36.0294C60.6401 36.5639 60.9056 37.2327 60.9056 38.0349C60.9056 38.4097 60.8309 38.7672 60.6815 39.1048C60.5313 39.446 60.3315 39.7427 60.085 40.0023C59.8357 40.2609 59.5442 40.4614 59.2095 40.6039C58.872 40.7473 58.5103 40.8181 58.1216 40.8181C57.4333 40.8181 56.8295 40.5957 56.3166 40.1484L43.9048 29.4495L42.7656 30.4386V38.0358C42.7656 38.4106 42.691 38.7681 42.5524 39.1057C42.4102 39.4469 42.2168 39.7436 41.9684 40.0032C41.7219 40.2618 41.4294 40.4623 41.0947 40.6048C40.7582 40.7482 40.3947 40.819 40.0069 40.819C39.6181 40.819 39.2564 40.7482 38.9199 40.6048C38.5834 40.4623 38.2927 40.2618 38.0444 40.0032C37.7979 39.7436 37.6017 39.4469 37.4613 39.1057C37.3201 38.7681 37.2481 38.4106 37.2481 38.0358V13.6408H37.2463Z" fill="#29344A"/>
<path d="M106.844 38.0086C106.844 38.7926 106.574 39.4587 106.033 40.0023C105.497 40.5458 104.847 40.8181 104.085 40.8181C103.309 40.8181 102.654 40.5458 102.122 40.0023C101.592 39.4587 101.325 38.7926 101.325 38.0086V22.7897C101.325 21.9331 101.163 21.1218 100.837 20.355C100.508 19.5873 100.063 18.9149 99.498 18.3341C98.9302 17.7543 98.2616 17.2951 97.4932 16.9575C96.7257 16.6182 95.8979 16.4494 95.0152 16.4494C94.1478 16.4494 93.3343 16.6182 92.574 16.9575C91.8128 17.2951 91.1451 17.7497 90.572 18.3205C89.9952 18.8913 89.5444 19.5601 89.2178 20.3278C88.8902 21.0946 88.7274 21.914 88.7274 22.7888V38.0077C88.7274 38.7917 88.4583 39.4578 87.9193 40.0014C87.3786 40.5449 86.7289 40.8172 85.9686 40.8172C85.1921 40.8172 84.5334 40.5449 83.9917 40.0014C83.4518 39.4578 83.1846 38.7917 83.1846 38.0077V22.7897C83.1846 21.9149 83.0172 21.0955 82.6807 20.3287C82.346 19.561 81.8952 18.8922 81.3265 18.3214C80.7615 17.7507 80.0992 17.296 79.3389 16.9584C78.5776 16.6191 77.7642 16.4503 76.8995 16.4503C76.0321 16.4503 75.2196 16.6145 74.4602 16.943C73.6971 17.2733 73.0313 17.7289 72.4572 18.3078C71.8804 18.8868 71.4305 19.5601 71.1048 20.3278C70.7782 21.0946 70.6135 21.914 70.6135 22.7888V38.0077C70.6135 38.7917 70.3436 39.4578 69.8046 40.0014C69.2647 40.5449 68.616 40.8172 67.8556 40.8172C67.0764 40.8172 66.4186 40.5449 65.8779 40.0014C65.3389 39.4578 65.0699 38.7917 65.0699 38.0077V13.6408C65.0699 12.874 65.3389 12.2197 65.8779 11.6753C66.4186 11.1317 67.0683 10.8604 67.8268 10.8604C68.4477 10.8604 68.9957 11.0328 69.4735 11.3822C69.9513 11.7288 70.2788 12.1889 70.4552 12.7588C72.3474 11.4929 74.4943 10.8604 76.9004 10.8604C78.6676 10.8604 80.3304 11.2116 81.8862 11.9166C83.4419 12.6199 84.8042 13.6871 85.9704 15.1127C88.4277 12.2769 91.4421 10.8604 95.017 10.8604C96.6258 10.8604 98.1501 11.1753 99.5915 11.8087C101.034 12.4412 102.286 13.2978 103.358 14.3767C104.427 15.4548 105.275 16.7207 105.904 18.1753C106.531 19.6282 106.846 21.1663 106.846 22.7897V38.0086H106.844Z" fill="#29344A"/>
<path d="M136.47 40.8172C135.674 40.8172 135.021 40.5495 134.507 40.015C133.994 39.4796 133.73 38.8289 133.713 38.0621C132.492 39.0249 131.201 39.7255 129.84 40.162C128.478 40.5994 127.004 40.8181 125.41 40.8181C123.517 40.8181 121.732 40.4478 120.052 39.7092C118.372 38.9687 116.905 37.965 115.649 36.7C114.392 35.4332 113.399 33.9532 112.666 32.2581C111.931 30.5648 111.564 28.7617 111.564 26.8551V13.6408C111.564 12.874 111.833 12.2197 112.374 11.6753C112.913 11.1317 113.57 10.8604 114.348 10.8604C115.109 10.8604 115.759 11.1317 116.298 11.6753C116.838 12.2197 117.107 12.874 117.107 13.6408V26.856C117.107 28.0148 117.325 29.102 117.757 30.1183C118.189 31.1346 118.782 32.0221 119.533 32.7817C120.285 33.5394 121.164 34.1365 122.175 34.573C123.182 35.0095 124.26 35.2291 125.41 35.2291C126.541 35.2291 127.611 35.0095 128.619 34.573C129.627 34.1365 130.512 33.534 131.271 32.7681C132.029 32.0004 132.628 31.1138 133.062 30.1065C133.495 29.0983 133.712 28.0148 133.712 26.856V13.6408C133.712 12.874 133.982 12.2197 134.52 11.6753C135.061 11.1317 135.717 10.8604 136.495 10.8604C137.257 10.8604 137.906 11.1317 138.445 11.6753C138.984 12.2197 139.253 12.874 139.253 13.6408V38.0349C139.253 38.8044 138.983 39.4578 138.445 40.0014C137.907 40.5449 137.248 40.8172 136.47 40.8172Z" fill="#29344A"/>
<path d="M156.177 10.8604C157.378 10.8604 158.517 11.0963 159.586 11.5682C160.657 12.0401 161.589 12.678 162.385 13.4793C163.179 14.2824 163.811 15.2225 164.28 16.3024C164.747 17.3804 164.982 18.5256 164.982 19.7389C164.982 21.6482 164.476 23.3233 163.469 24.7671C164.053 25.3034 164.566 25.8379 165.007 26.3723C165.45 26.9068 165.815 27.4595 166.108 28.0312C166.4 28.6019 166.623 29.2036 166.771 29.8361C166.923 30.4704 166.998 31.1691 166.998 31.9359C166.998 33.1501 166.767 34.2953 166.306 35.3733C165.846 36.4523 165.219 37.3933 164.424 38.1955C163.628 38.9986 162.694 39.6366 161.627 40.1084C160.556 40.5812 159.412 40.8171 158.191 40.8171H146.098C145.708 40.8171 145.345 40.7464 145.011 40.603C144.675 40.4605 144.383 40.26 144.135 40.0013C143.886 39.7418 143.692 39.4451 143.552 39.1039C143.411 38.7663 143.34 38.4088 143.34 38.034V13.6408C143.34 13.2669 143.411 12.9094 143.552 12.5709C143.692 12.2315 143.886 11.9339 144.135 11.6753C144.382 11.4175 144.675 11.2161 145.011 11.0727C145.345 10.9312 145.708 10.8604 146.098 10.8604H156.177ZM156.177 23.0574C156.603 23.0574 157.014 22.9712 157.409 22.8024C157.809 22.6336 158.156 22.4022 158.458 22.1055C158.758 21.8124 158.998 21.4639 159.174 21.0638C159.351 20.6627 159.439 20.2207 159.439 19.7398C159.439 19.2942 159.351 18.8704 159.174 18.4684C158.998 18.0673 158.762 17.7207 158.471 17.4258C158.179 17.1327 157.836 16.8967 157.437 16.7171C157.041 16.5401 156.62 16.4512 156.178 16.4512H148.857V23.0583H156.177V23.0574ZM158.193 35.2272C158.635 35.2272 159.057 35.1419 159.453 34.9732C159.851 34.8026 160.196 34.5675 160.486 34.2653C160.777 33.9614 161.013 33.6138 161.189 33.2209C161.365 32.8298 161.455 32.4014 161.455 31.9359C161.455 31.4731 161.365 31.0366 161.189 30.6265C161.013 30.2163 160.773 29.8633 160.473 29.5693C160.172 29.2744 159.824 29.0439 159.426 28.8742C159.029 28.7054 158.617 28.621 158.192 28.621H148.856V35.2282H158.193V35.2272Z" fill="#29344A"/>
</g>
<defs>
<clipPath id="clip0_3_574">
<rect width="167" height="40.8171" fill="white"/>
</clipPath>
</defs>
</svg>
